# xmcd
#
# Track frame offsets:
# 150
# 17164
# 39984
# 60885
# 80895
# 98583
# 117217
# 132042
# 152187
# 169579
# 192020
# 205388
# 222806
# 235392
#
# Disc length: 3369 seconds
#
#
# Revision: 3
# Processed by: cddbd v1.5.1PL0 Copyright (c) Steve Scherf et al.
# Submitted via: FreeRIP 2.70 
#
DISCID=b20d270e
DTITLE=Di Paullo e paulino - Ao Vivo
DYEAR=1900
DGENRE=
TTITLE0=Amor de Primavera
TTITLE1=Telefone Mudo
TTITLE2=To Por Ai
TTITLE3=Tempo ao Tempo
TTITLE4=Sonhei Com Voce
TTITLE5=Pedaço de Minha vida
TTITLE6=So Felicidade
TTITLE7=Ilusao Pedida Mulher, Sempre Mulher
TTITLE8=Onde Anda Voce
TTITLE9=O Beijo do Adeus Sublime renuncia Ultimo Adeus
TTITLE10=Hoje eu Nao Posso ir
TTITLE11=Eu Disse Nao Esta Noite como Lembrança
TTITLE12=Barco de Papel
TTITLE13=Boiadeiro Errante
EXTD=
EXTT0=
EXTT1=
EXTT2=
EXTT3=
EXTT4=
EXTT5=
EXTT6=
EXTT7=
EXTT8=
EXTT9=
EXTT10=
EXTT11=
EXTT12=
EXTT13=
PLAYORDER=
